<?xml version="1.0" encoding="utf-8"?>
<!-- Generator: Adobe Illustrator 16.0.0, SVG Export Plug-In . SVG Version: 6.00 Build 0)  -->
<!DOCTYPE svg PUBLIC "-//W3C//DTD SVG 1.1//EN" "http://www.w3.org/Graphics/SVG/1.1/DTD/svg11.dtd">
<svg version="1.1" id="Layer_1" xmlns="http://www.w3.org/2000/svg" xmlns:xlink="http://www.w3.org/1999/xlink" x="0px" y="0px"
	 width="61.717px" height="61.717px" viewBox="0 0 61.717 61.717" enable-background="new 0 0 61.717 61.717" xml:space="preserve">
<g>
	<path fill="#B12825" d="M27.793,15.764c1.106-1.369,2.538-2.643,4.263-3.655c0,0,0.08-0.048,0.225-0.133
		c0.143-0.087,0.35-0.197,0.604-0.328c0.508-0.272,1.213-0.595,1.959-0.878c0.747-0.288,1.53-0.514,2.139-0.674
		c0.603-0.14,1.021-0.227,1.021-0.227s-0.275-0.312-0.723-0.787c-0.449-0.458-1.081-1.068-1.774-1.634
		c-0.69-0.569-1.438-1.108-2.022-1.482c-0.293-0.193-0.543-0.352-0.719-0.451c-0.178-0.104-0.279-0.164-0.279-0.164
		c-2.178-1.279-4.676-2.251-7.401-2.855l0.689,3.378c-0.683,0.148-1.364,0.305-2.033,0.508c-0.17,0.049-0.34,0.094-0.506,0.147
		l-0.497,0.167L22.24,6.864l-0.123,0.043l-0.156,0.062c-0.343,0.134-0.688,0.264-1.027,0.405c-2.716,1.146-5.226,2.771-7.394,4.771
		c-2.178,1.994-3.971,4.399-5.327,7.006c-1.354,2.61-2.244,5.468-2.639,8.392C5.188,30.47,5.33,33.46,5.96,36.336
		c0.625,2.881,1.774,5.64,3.343,8.134c0.786,1.247,1.679,2.428,2.667,3.521c0.99,1.093,2.082,2.097,3.247,3
		c1.144,0.884,2.357,1.676,3.631,2.355l3.127-5.865c-0.945-0.504-1.84-1.09-2.686-1.742c-0.859-0.668-1.664-1.405-2.396-2.211
		c-0.729-0.809-1.388-1.682-1.969-2.603c-1.159-1.845-2.015-3.889-2.476-6.022c-0.465-2.131-0.569-4.336-0.286-6.495
		c0.294-2.156,0.945-4.266,1.956-6.208c1.01-1.935,2.324-3.708,3.934-5.177c1.601-1.475,3.455-2.678,5.467-3.527l0.76-0.301
		l0.116-0.045c0.03-0.013,0.062-0.022,0.091-0.033l0.369-0.123l0.368-0.124c0.122-0.042,0.248-0.072,0.372-0.109
		c0.496-0.15,1.003-0.264,1.507-0.376L27.793,15.764z"/>
	<path fill="#B12825" d="M33.925,45.954c-1.105,1.367-2.539,2.643-4.262,3.654c0,0-0.082,0.047-0.225,0.131
		c-0.144,0.09-0.35,0.201-0.603,0.33c-0.51,0.271-1.214,0.596-1.962,0.88c-0.745,0.286-1.529,0.513-2.136,0.672
		c-0.602,0.14-1.024,0.226-1.024,0.226s0.278,0.313,0.723,0.789c0.45,0.455,1.083,1.066,1.776,1.633
		c0.689,0.567,1.437,1.107,2.022,1.48c0.292,0.193,0.542,0.354,0.72,0.453c0.177,0.104,0.279,0.164,0.279,0.164
		c2.178,1.277,4.675,2.25,7.4,2.854l-0.69-3.378c0.685-0.147,1.365-0.305,2.035-0.506c0.168-0.05,0.336-0.095,0.504-0.147
		l0.498-0.168l0.496-0.168l0.125-0.043l0.156-0.061c0.344-0.135,0.688-0.266,1.028-0.406c2.713-1.146,5.225-2.771,7.394-4.771
		c2.178-1.994,3.969-4.396,5.325-7.006c1.354-2.608,2.245-5.467,2.64-8.393c0.385-2.926,0.244-5.916-0.387-8.793
		c-0.625-2.88-1.773-5.641-3.343-8.133c-0.785-1.247-1.679-2.427-2.667-3.523c-0.991-1.092-2.081-2.095-3.246-2.998
		c-1.143-0.885-2.357-1.677-3.631-2.357l-3.127,5.864c0.943,0.504,1.841,1.091,2.686,1.743c0.858,0.667,1.663,1.405,2.396,2.211
		c0.727,0.809,1.388,1.681,1.967,2.603c1.161,1.844,2.017,3.889,2.476,6.021c0.467,2.131,0.571,4.337,0.287,6.497
		c-0.293,2.155-0.945,4.266-1.955,6.209c-1.009,1.935-2.324,3.707-3.934,5.176c-1.602,1.476-3.456,2.678-5.466,3.527l-0.761,0.301
		l-0.117,0.045c-0.029,0.013-0.062,0.021-0.092,0.033l-0.369,0.123l-0.365,0.125c-0.124,0.041-0.251,0.07-0.375,0.107
		c-0.495,0.15-1,0.264-1.506,0.376L33.925,45.954z"/>
	<g>
		<path fill="#B12825" d="M17.034,32.54l-2.037,0.743c-0.375-1.205-0.343-2.272,0.099-3.203c0.441-0.928,1.202-1.592,2.282-1.983
			c0.667-0.242,1.306-0.316,1.919-0.221c0.612,0.096,1.167,0.352,1.667,0.771c0.497,0.419,0.848,0.901,1.048,1.45
			c0.236,0.651,0.307,1.419,0.208,2.306c-0.097,0.886-0.453,2.021-1.063,3.406l-0.76,1.746l3.912-1.424l0.704,1.934l-7.605,2.77
			l-0.364-1l2.136-4.699c0.518-1.13,0.821-1.996,0.908-2.6c0.087-0.605,0.058-1.111-0.091-1.519
			c-0.155-0.423-0.422-0.723-0.804-0.894c-0.383-0.176-0.793-0.182-1.236-0.02c-0.449,0.163-0.761,0.466-0.938,0.907
			C16.841,31.45,16.847,31.96,17.034,32.54z"/>
		<path fill="#B12825" d="M26.61,24.736l2.082-0.759l2.574,7.069l0.977-0.355l0.703,1.932l-0.979,0.356l0.82,2.252l-2.044,0.746
			l-0.821-2.256l-4.792,1.748l-0.703-1.936L26.61,24.736z M29.221,31.791l-1.339-3.68l-1.17,4.592L29.221,31.791z"/>
		<path fill="#B12825" d="M34.392,36.864l0.104-15.042l1.458-0.53l-0.114,15.042L34.392,36.864z"/>
		<path fill="#B12825" d="M37.078,23.141l7.202-2.623l0.398,1.096l-1.258,11.962l-2.078-0.216l1.055-9.936l-4.604,1.676
			L37.078,23.141z"/>
	</g>
</g>
</svg>
