<?xml version="1.0" encoding="utf-8"?>
<!-- Generator: Adobe Illustrator 16.0.0, SVG Export Plug-In . SVG Version: 6.00 Build 0)  -->
<!DOCTYPE svg PUBLIC "-//W3C//DTD SVG 1.1//EN" "http://www.w3.org/Graphics/SVG/1.1/DTD/svg11.dtd">
<svg version="1.1" id="Layer_1" xmlns="http://www.w3.org/2000/svg" xmlns:xlink="http://www.w3.org/1999/xlink" x="0px" y="0px"
	 width="283.465px" height="212.598px" viewBox="0 0 283.465 212.598" enable-background="new 0 0 283.465 212.598"
	 xml:space="preserve">
	<polygon fill="#B22312" points="283.465,92.934 189.744,126.757 155.632,33.824 249.354,0 			"/>
	<polygon fill="#252329" points="166.952,115.834 152.521,34.67 70.672,48.982 85.105,130.144 			"/>
	<path fill="#252329" d="M95.932,145.982c-3.774-2.185-8.57-3.278-14.377-3.278c-4.751,0-8.952,0.907-12.61,2.724
		c-3.658,1.809-6.287,4.42-7.894,7.825c-1.606,3.406-2.408,8.057-2.408,13.953v19.668c0,5.017,0.359,8.84,1.076,11.463
		c0.715,2.627,2.008,5.033,3.868,7.22c1.863,2.184,4.468,3.905,7.819,5.159c3.349,1.253,7.209,1.882,11.584,1.882
		c4.511,0,8.259-0.636,11.252-1.908c2.99-1.269,5.458-3.178,7.405-5.719c1.948-2.539,3.187-4.931,3.718-7.164
		c0.529-2.238,0.795-5.438,0.795-9.606v-4.981H86.526v8.896c0,3.351-0.263,5.615-0.795,6.785c-0.53,1.168-1.579,1.752-3.151,1.752
		c-1.265,0-2.119-0.44-2.563-1.323c-0.444-0.879-0.667-2.845-0.667-5.896v-14.586h26.81v-8.949c0-6.539-0.763-11.617-2.282-15.226
		C102.356,151.064,99.708,148.168,95.932,145.982z M85.4,167.867h-6.051v-4.931c0-3.797,0.172-6.127,0.514-6.987
		c0.341-0.865,1.229-1.3,2.665-1.3c1.162,0,1.93,0.506,2.308,1.527c0.375,1.018,0.564,3.268,0.564,6.76V167.867z"/>
	<path fill="#252329" d="M140.247,191.655c0,3.488-0.248,5.861-0.743,7.115c-0.494,1.252-1.446,1.881-2.845,1.881
		c-1.197,0-2.102-0.604-2.718-1.807c-0.614-1.201-0.923-3.007-0.923-5.412v-31.818c0-2.946,0.207-4.846,0.615-5.692
		c0.411-0.847,1.212-1.271,2.41-1.271c1.196,0,2.015,0.484,2.462,1.451c0.44,0.967,0.665,2.803,0.665,5.514v7.777h19.529
		c0-6.338-0.631-11.233-1.897-14.697c-1.265-3.452-3.811-6.316-7.637-8.588c-3.826-2.269-8.443-3.405-13.841-3.405
		c-5.434,0-10.048,1.146-13.839,3.437c-3.793,2.284-6.273,4.883-7.433,7.801c-1.162,2.912-1.744,7.232-1.744,12.961v19.159
		c0,6.576,0.711,11.649,2.129,15.226c1.417,3.573,3.834,6.354,7.253,8.336c3.417,1.983,8.047,2.976,13.891,2.976
		c4.581,0,8.422-0.722,11.532-2.162c3.111-1.44,5.63-3.576,7.562-6.401c1.933-2.83,3.077-5.593,3.437-8.287
		c0.359-2.692,0.556-6.733,0.589-12.121h-18.453V191.655z"/>
	<path fill="#252329" d="M238.973,150.131c-1.814-2.202-4.385-3.985-7.717-5.36c-3.334-1.375-7.324-2.062-11.97-2.062
		c-5.536,0-10.081,1.065-13.634,3.203c-3.557,2.135-6.02,4.963-7.385,8.487c-1.365,3.522-2.049,8.422-2.049,14.69v17.281
		c0,5.726,0.375,10.024,1.129,12.885c0.75,2.863,2.006,5.302,3.766,7.32c1.761,2.016,4.229,3.521,7.408,4.521
		c3.179,1,7.057,1.502,11.637,1.502c4.104,0,7.734-0.586,10.891-1.754c3.165-1.169,5.753-2.982,7.77-5.439
		c2.014-2.456,3.332-5.1,3.947-7.928c0.613-2.832,0.924-7.278,0.924-13.347v-16.519c0-4.779-0.336-8.336-1.002-10.67
		C242.021,154.605,240.781,152.334,238.973,150.131z M222.979,193.638c0,2.916-0.193,4.812-0.59,5.69
		c-0.391,0.883-1.203,1.323-2.434,1.323c-1.196,0-1.998-0.481-2.408-1.448c-0.41-0.966-0.615-3.041-0.615-6.229v-30.443
		c0-3.459,0.205-5.637,0.615-6.532c0.41-0.899,1.229-1.349,2.46-1.349c1.229,0,2.033,0.451,2.409,1.349
		c0.375,0.896,0.563,3.073,0.563,6.532V193.638z"/>
	<path fill="#252329" d="M270.396,154.017l0.818-8.867h-20.71v67.445h20.71v-26.636c0-6.537,0.205-10.715,0.615-12.528
		c0.408-1.812,1.503-3.226,3.281-4.242c1.775-1.017,4.563-1.526,8.354-1.526v-23.735
		C277.759,144.302,273.402,147.664,270.396,154.017z"/>
	<path fill="#252329" d="M31.973,145.609c-1.252,12.3-2.434,26.377-3.55,42.234c-1.034-14.345-2.703-31.619-5.002-51.804
		L1.45,139.884l11.018,72.714H45.25l10.982-82.293l-23.157,4.05L31.973,145.609z"/>
	<path fill="#252329" d="M186.688,193.536v-36.089h5.588v-10.672h-5.588v-10.389l-20.762,7.491v2.896h-4.457v10.672h4.457v34.259
		c0,6.711,0.189,10.974,0.565,12.784c0.375,1.814,1.334,3.425,2.87,4.826c1.539,1.41,3.313,2.31,5.33,2.695
		c2.018,0.391,5.384,0.584,10.101,0.584h8.354V201.72c-3.383,0.002-5.305-0.254-5.766-0.762
		C186.917,200.45,186.688,197.977,186.688,193.536z"/>
	<path fill="#252329" d="M30.796,89.502h4.622c-0.68-5.801-1.363-12.965-2.047-21.502C32.006,77.802,31.146,84.969,30.796,89.502z
		"/>
	<path fill="#252329" d="M66.49,49.215H0v65.933h66.49V49.215z M36.488,107.775l-0.72-9.2h-4.8l-0.808,9.2H16.28l6.847-51.188
		H42.53l7.679,51.188H36.488z"/>
</svg>
